<?xml version="1.0" encoding="UTF-8"?>
<svg width="243px" height="41px" viewBox="0 0 243 41" version="1.1" xmlns="http://www.w3.org/2000/svg" xmlns:xlink="http://www.w3.org/1999/xlink">
    <title>logo-uzer-tecnologia</title>
    <defs>
        <linearGradient x1="100%" y1="22.4873472%" x2="0%" y2="79.7424978%" id="linearGradient-1">
            <stop stop-color="#05B59D" offset="0%"></stop>
            <stop stop-color="#6E00C5" offset="100%"></stop>
        </linearGradient>
    </defs>
    <g id="Page-1" stroke="none" stroke-width="1" fill="none" fill-rule="evenodd">
        <g id="logo-uzer-tecnologia">
            <g transform="translate(49.000000, 6.000000)">
                <g id="LOGO">
                    <path d="M40.5999,5.82500222 L36.1999,5.82500222 L33.1999,2.82500222 C32.8999,2.52500223 32.8999,2.12500222 33.1999,1.92500222 L34.8999,0.225000225 C35.1999,-0.075000075 35.5999,-0.075000075 35.7999,0.225000225 L41.8999,6.32500222 C41.5999,6.02500222 41.0999,5.82500222 40.5999,5.82500222 Z M25.6999,24.3250022 L30.0999,24.3250022 L33.0999,27.3250022 C33.3999,27.5250022 33.3999,28.0250022 33.0999,28.2250022 L31.3999,29.9250022 C31.1999,30.2250022 30.6999,30.2250022 30.4999,29.9250022 L24.3999,23.8250022 C24.7999,24.1250022 25.1999,24.3250022 25.6999,24.3250022 Z" id="Shape" fill="#05B59D"></path>
                    <path d="M17.7,5.82495223 L15.6,5.82495223 C15.2,5.82495223 14.8,6.22495223 14.8,6.62495223 L14.8,15.6249022 C14.8,18.7249022 12.4,21.3249022 9.2,21.3249022 C6.1,21.3249022 3.6,18.7249022 3.6,15.6249022 L3.6,6.62495223 C3.6,6.22495223 3.2,5.82495223 2.8,5.82495223 L0.8,5.82495223 C0.4,5.82495223 0,6.12495223 0,6.62495223 L0,15.6249022 C0,20.8249022 4.1,25.0249022 9.2,25.0249022 C14.3,25.0249022 18.4,20.8249022 18.4,15.6249022 L18.4,6.62495223 C18.5,6.12495223 18.1,5.82495223 17.7,5.82495223 Z" id="Path" fill="#FFFFFF"></path>
                    <path d="M82.8,5.82495222 C87,5.82495222 89.9,8.42495222 89.9,12.2249022 C89.9,14.1249022 89.1,16.7249022 85.5,18.1249022 L85.5,18.1249022 L89,23.3249022 C89.1,23.6249022 89.1,23.8249022 89.1,24.1249022 C89,24.3249022 88.7,24.4249022 88.5,24.4249022 L88.5,24.4249022 L86.1,24.4249022 C85.8,24.4249022 85.4,24.1249022 85.2,23.8249022 L85.2,23.8249022 L81.7,18.8249022 L81.6,18.7249022 L74.2,18.7249022 L74.2,23.6249022 C74.2,24.0249022 73.8,24.4249022 73.4,24.4249022 L73.4,24.4249022 L71.3,24.4249022 C70.9,24.4249022 70.5,24.0249022 70.5,23.6249022 L70.5,23.6249022 L70.5,9.32495222 C70.5,7.42495222 72.1,5.82495222 74,5.82495222 L74,5.82495222 Z M82.8690152,9.42583154 L74.2,9.42495222 L74.2,15.0249022 L82.8775635,15.0240229 C83.7551882,15.0047002 86.2,14.6491446 86.2,12.2249022 C86.2,9.72495222 83.5,9.42495222 82.8,9.42495222 Z" id="Combined-Shape" fill="#FFFFFF"></path>
                    <path d="M64,9.52495223 L55.5,9.52495223 C53,9.52495223 50.9,11.1249022 50.1,13.3249022 L59.9,13.3249022 C60.3,13.3249022 60.7,13.7249022 60.7,14.1249022 L60.7,16.2249022 C60.7,16.6249022 60.3,17.0249022 59.9,17.0249022 L50,17.0249022 C50.8,19.2249022 52.9,20.8249022 55.4,20.8249022 L64,20.8249022 C64.4,20.8249022 64.8,21.2249022 64.8,21.6249022 L64.8,23.7250022 C64.8,24.1250022 64.4,24.5249022 64,24.5249022 L55.5,24.5249022 C50.3,24.5249022 46.1,20.4249022 46.1,15.3249022 C46.1,10.2249022 50.3,6.12495223 55.5,6.12495223 L64,6.12495223 C64.4,6.12495223 64.8,6.52495223 64.8,6.92495223 L64.8,9.02495223 C64.8,9.12495223 64.4,9.52495223 64,9.52495223 Z" id="Path" fill="#FFFFFF"></path>
                    <path d="M42.5,7.62495222 C42.5,6.62495222 41.7,5.82495222 40.7,5.82495222 L24.4,5.82495222 C24.1,5.82495222 23.9,6.02495222 23.9,6.32495222 L23.9,9.02495222 C23.9,9.32495222 24.1,9.52495222 24.4,9.52495222 L36.2,9.52495222 L33.1,12.6249022 C32.9,12.8249022 32.9,13.1249022 33.1,13.3249022 L35,15.2249022 C35.2,15.4249022 35.5,15.4249022 35.7,15.2249022 L42,8.92495222 C42.2,8.62495222 42.5,8.12495222 42.5,7.62495222 Z" id="Path" fill="#FFFFFF"></path>
                    <path d="M25.7,24.3249022 C24.7,24.3249022 23.9,23.5249022 23.9,22.5249022 C23.9,22.0249022 24.1,21.5249022 24.4,21.2249022 L30.7,14.9249022 C30.9,14.7249022 31.2,14.7249022 31.3,14.9249022 L33.2,16.8249022 C33.4,17.0249022 33.4,17.3249022 33.2,17.4249022 L30.1,20.5249022 L42,20.5249022 C42.3,20.5249022 42.5,20.7249022 42.5,21.0249022 L42.5,23.7250022 C42.5,24.0250022 42.3,24.2250022 42,24.2250022 L25.7,24.2250022 L25.7,24.3249022 Z" id="Path" fill="#FFFFFF"></path>
                </g>
                <g id="DESC" transform="translate(100.700000, 11.624902)" fill="#05B59D">
                    <polygon id="Path" points="2.7 1.7 0 1.7 0 0.1 7.2 0.1 7.2 1.7 4.5 1.7 4.5 8.4 2.6 8.4 2.6 1.7"></polygon>
                    <polygon id="Path" points="16 8.4 16 6.9 11.5 6.9 11.5 5 15.4 5 15.4 3.5 11.5 3.5 11.5 1.7 15.9 1.7 15.9 0.2 9.6 0.2 9.6 8.4"></polygon>
                    <path d="M19.5,8 C18.8,7.6 18.3,7.1 17.9,6.5 C17.5,5.8 17.3,5.1 17.3,4.3 C17.3,3.5 17.5,2.7 17.9,2.1 C18.3,1.4 18.8,0.9 19.5,0.6 C20.2,0.2 21,0 21.8,0 C22.5,0 23.2,0.1 23.8,0.4 C24.4,0.7 24.9,1 25.3,1.5 L24.1,2.6 C23.5,2 22.8,1.6 22,1.6 C21.5,1.6 21,1.7 20.6,1.9 C20.2,2.1 19.9,2.4 19.7,2.8 C19.5,3.2 19.4,3.7 19.4,4.2 C19.4,4.7 19.5,5.2 19.7,5.6 C19.9,6 20.2,6.3 20.6,6.5 C21,6.7 21.5,6.8 22,6.8 C22.8,6.8 23.5,6.5 24.1,5.8 L25.3,6.9 C24.9,7.4 24.4,7.8 23.8,8 C23.2,8.2 22.6,8.4 21.8,8.4 C21,8.6 20.2,8.4 19.5,8 Z" id="Path"></path>
                    <polygon id="Path" points="34.7 8.4 34.7 0.1 32.8 0.1 32.8 5.1 28.7 0.1 27.1 0.1 27.1 8.4 29 8.4 29 3.4 33.1 8.4"></polygon>
                    <path d="M41.9,0 C42.8,0 43.5,0.2 44.2,0.6 C44.9,1 45.4,1.5 45.8,2.1 C46.2,2.8 46.4,3.5 46.4,4.3 C46.4,5.1 46.2,5.9 45.8,6.5 C45.4,7.2 44.9,7.7 44.2,8 C43.5,8.4 42.7,8.6 41.9,8.6 C41.1,8.6 40.3,8.4 39.6,8 C38.9,7.6 38.4,7.1 38,6.5 C37.6,5.8 37.4,5.1 37.4,4.3 C37.4,3.5 37.6,2.7 38,2.1 C38.4,1.4 38.9,0.9 39.6,0.6 C40.3,0.2 41.1,0 41.9,0 Z M42,1.7 C41.5,1.7 41.1,1.8 40.7,2 C40.3,2.2 40,2.5 39.8,2.9 C39.6,3.3 39.5,3.8 39.5,4.3 C39.5,4.8 39.6,5.3 39.8,5.7 C40,6.1 40.3,6.4 40.7,6.6 C41.1,6.8 41.5,6.9 42,6.9 C42.5,7 42.9,6.8 43.3,6.6 C43.7,6.4 44,6.1 44.2,5.7 C44.4,5.3 44.5,4.8 44.5,4.3 C44.5,3.8 44.4,3.3 44.2,2.9 C44,2.5 43.7,2.2 43.3,2 C42.9,1.8 42.5,1.7 42,1.7 Z" id="Combined-Shape"></path>
                    <polygon id="Path" points="51.1 0.1 49.2 0.1 49.2 8.4 55.3 8.4 55.3 6.8 51.1 6.8"></polygon>
                    <path d="M61.6,0 C62.5,0 63.2,0.2 63.9,0.6 C64.6,1 65.1,1.5 65.5,2.1 C65.9,2.8 66.1,3.5 66.1,4.3 C66.1,5.1 65.9,5.9 65.5,6.5 C65.1,7.2 64.6,7.7 63.9,8 C63.2,8.4 62.4,8.6 61.6,8.6 C60.8,8.6 60,8.4 59.3,8 C58.6,7.6 58.1,7.1 57.7,6.5 C57.3,5.8 57.1,5.1 57.1,4.3 C57.1,3.5 57.3,2.7 57.7,2.1 C58.1,1.4 58.6,0.9 59.3,0.6 C60,0.2 60.8,0 61.6,0 Z M61.7,1.7 C61.2,1.7 60.8,1.8 60.4,2 C60,2.2 59.7,2.5 59.5,2.9 C59.3,3.3 59.2,3.8 59.2,4.3 C59.2,4.8 59.3,5.3 59.5,5.7 C59.7,6.1 60,6.4 60.4,6.6 C60.8,6.8 61.2,6.9 61.7,6.9 C62.1,7 62.6,6.8 63,6.6 C63.4,6.4 63.7,6.1 63.9,5.7 C64.1,5.3 64.2,4.8 64.2,4.3 C64.2,3.8 64.1,3.3 63.9,2.9 C63.7,2.5 63.4,2.2 63,2 C62.6,1.8 62.2,1.7 61.7,1.7 Z" id="Combined-Shape"></path>
                    <path d="M76.3,4.2 L74.5,4.2 L74.5,6.6 C74.1,6.8 73.6,7 73,7 C72.5,7 72,6.9 71.6,6.7 C71.2,6.5 70.9,6.2 70.6,5.8 C70.4,5.4 70.3,4.9 70.3,4.4 C70.3,3.9 70.4,3.4 70.6,3 C70.8,2.6 71.1,2.3 71.6,2.1 C72,1.9 72.5,1.8 73,1.8 C73.8,1.8 74.6,2.1 75.1,2.7 L76.3,1.6 C75.9,1.1 75.4,0.8 74.8,0.5 C74.2,0.3 73.5,0.1 72.8,0.1 C71.9,0.1 71.1,0.3 70.5,0.7 C69.8,1.1 69.3,1.6 68.9,2.2 C68.5,2.9 68.3,3.6 68.3,4.4 C68.3,5.2 68.5,6 68.9,6.6 C69.3,7.2 69.8,7.8 70.5,8.1 C71.2,8.5 72,8.7 72.8,8.7 C73.4,8.7 74,8.6 74.6,8.4 C75.2,8.2 75.7,8 76.2,7.6 L76.2,4.2 L76.3,4.2 Z" id="Path"></path>
                    <polygon id="Path" points="81.2 0.1 79.3 0.1 79.3 8.4 81.2 8.4"></polygon>
                    <path d="M88.9,0.2 L92.6,8.5 L90.6,8.5 L89.9,6.7 L86,6.7 L85.3,8.4 L83.3,8.4 L87,0.2 L88.9,0.2 Z M88,2 L86.7,5.2 L89.3,5.2 L88,2 Z" id="Combined-Shape"></path>
                </g>
            </g>
            <circle id="Oval" fill="url(#linearGradient-1)" cx="20.5" cy="20.5" r="20.5"></circle>
            <g id="Group" transform="translate(11.000000, 6.000000)">
                <path d="M16.6999,5.82500223 L12.2999,5.82500223 L9.2999,2.82500223 C8.9999,2.52500223 8.9999,2.12500223 9.2999,1.92500223 L10.9999,0.225000225 C11.2999,-0.075000075 11.6999,-0.075000075 11.8999,0.225000225 L17.9999,6.32500223 C17.6999,6.02500223 17.1999,5.82500223 16.6999,5.82500223 Z M1.7999,24.3250022 L6.1999,24.3250022 L9.1999,27.3250022 C9.4999,27.5250022 9.4999,28.0250022 9.1999,28.2250022 L7.4999,29.9250022 C7.2999,30.2250022 6.7999,30.2250022 6.5999,29.9250022 L0.4999,23.8250022 C0.8999,24.1250022 1.2999,24.3250022 1.7999,24.3250022 Z" id="Shape" fill="#05B59D"></path>
                <path d="M18.6,7.62495222 C18.6,6.62495222 17.8,5.82495222 16.8,5.82495222 L0.5,5.82495222 C0.2,5.82495222 0,6.02495222 0,6.32495222 L0,9.02495222 C0,9.32495222 0.2,9.52495222 0.5,9.52495222 L12.3,9.52495222 L9.2,12.6249022 C9,12.8249022 9,13.1249022 9.2,13.3249022 L11.1,15.2249022 C11.3,15.4249022 11.6,15.4249022 11.8,15.2249022 L18.1,8.92495222 C18.3,8.62495222 18.6,8.12495222 18.6,7.62495222 Z" id="Path" fill="#FFFFFF"></path>
                <path d="M1.8,24.3249022 C0.8,24.3249022 0,23.5249022 0,22.5249022 C0,22.0249022 0.2,21.5249022 0.5,21.2249022 L6.8,14.9249022 C7,14.7249022 7.3,14.7249022 7.4,14.9249022 L9.3,16.8249022 C9.5,17.0249022 9.5,17.3249022 9.3,17.4249022 L6.2,20.5249022 L18.1,20.5249022 C18.4,20.5249022 18.6,20.7249022 18.6,21.0249022 L18.6,23.7250022 C18.6,24.0250022 18.4,24.2250022 18.1,24.2250022 L1.8,24.2250022 L1.8,24.3249022 Z" id="Path" fill="#FFFFFF"></path>
            </g>
        </g>
    </g>
</svg>